# xmcd CD database file
#
# Track frame offsets:
#	150
#	21749
#	45848
#	65638
#	83054
#	107603
#	121778
#	138569
#	162154
#	185436
#
# Disc length: 2772 seconds
#
# Revision: 0
# Processed by: cddbd v1.5PL3 Copyright (c) Steve Scherf et al.
# Submitted via: CDex 1.51
#
DISCID=800ad20a
DTITLE=Sojoio - Itoshi no mori, a-moll   KTCR-1703
DYEAR=1997
DGENRE=New Age
TTITLE0=Sojoio - a-moll
TTITLE1=Sojoio - Kiccory
TTITLE2=Sojoio - (Chinese Title)
TTITLE3=Sojoio - (Chinese Title)
TTITLE4=Sojoio - (Chinese Title)
TTITLE5=Sojoio - (Chinese Title)
TTITLE6=Sojoio - (Chinese Title)
TTITLE7=Sojoio - (Chinese Title)
TTITLE8=Sojoio - (Chinese Title)
TTITLE9=Sojoio - (Chinese Title)
EXTD=YEAR: 1997
EXTT0=
EXTT1=
EXTT2=
EXTT3=
EXTT4=
EXTT5=
EXTT6=
EXTT7=
EXTT8=
EXTT9=
PLAYORDER=
